# xmcd CD database file
#
# Track frame offsets:
#	150
#	12598
#	25405
#	36302
#	48968
#	62182
#	72474
#	85147
#	96794
#	108732
#	120150
#	132815
#	146489
#	158609
#	170411
#
# Disc length: 2456 seconds
#
# Revision: 0
# Processed by: cddbd v1.5PL3 Copyright (c) Steve Scherf et al.
# Submitted via: CDex 1.50beta10
#
DISCID=ca09960f
DTITLE=Ray Charles - Masters of Jazz
DYEAR=1900
DGENRE=Jazz
TTITLE0=Rocking chair blues
TTITLE1=Don't put all your dreams in one basket
TTITLE2=A sentimental blues
TTITLE3=Blues before sunrise
TTITLE4=Alone in the city
TTITLE5=Ain't that fine
TTITLE6=Can anyone ask for more
TTITLE7=How long, how long blues
TTITLE8=I love You, I love You
TTITLE9=Let's have a ball
TTITLE10=You always miss the water
TTITLE11=This love of mine
TTITLE12=I've had my fun
TTITLE13=C C rider
TTITLE14=Late in the evening blues
EXTD=
EXTT0=
EXTT1=
EXTT2=
EXTT3=
EXTT4=
EXTT5=
EXTT6=
EXTT7=
EXTT8=
EXTT9=
EXTT10=
EXTT11=
EXTT12=
EXTT13=
EXTT14=
PLAYORDER=
